<svg width="20px" height="27px" viewBox="0 0 26 36" version="1.1" xmlns="http://www.w3.org/2000/svg" xmlns:xlink="http://www.w3.org/1999/xlink">
                    <g stroke="none" stroke-width="1" fill="none" fill-rule="evenodd">
                        <g transform="translate(-182.000000, -67.000000)" fill="#FFFFFE">
                            <g transform="translate(90.000000, 67.000000)">
                                <path d="M111.236446,14.9342325 C112.340439,11.9341596 113.202032,9.457518 113.820224,7.50418274 C114.438415,5.55084749 114.747449,4.35171841 114.747449,3.90667051 C114.747449,3.42861905 114.644437,3.05770413 114.438415,2.79405075 C114.232018,2.53052238 113.947612,2.39838316 113.585323,2.39838316 C113.123774,2.39838316 112.653973,2.78167442 112.176047,3.54813192 C111.69762,4.31458942 111.170438,5.54709708 110.593626,7.24452979 L108.120985,14.3901739 L111.236446,14.9342325 Z M107.947842,21.5853234 C107.23914,21.5523199 106.567068,21.4781869 105.93275,21.3627995 C105.298181,21.2477871 104.692366,21.0826443 104.115429,20.8683712 C104.378832,21.3961781 104.613733,21.9232348 104.82013,22.4507916 C105.026152,22.9785984 105.194795,23.4977793 105.32706,24.0084592 C105.722602,23.513906 106.138897,23.0651077 106.575694,22.6609392 C107.012116,22.2570207 107.46954,21.8984821 107.947842,21.5853234 Z M105.153916,14.093517 L102.483628,6.37918665 C101.791304,4.41760051 101.255496,3.13633759 100.876455,2.5343978 C100.496915,1.93270803 100.085245,1.63192566 99.6400724,1.63192566 C99.2940351,1.63192566 99.0133799,1.76406488 98.7994819,2.02746823 C98.5852088,2.29124663 98.4780723,2.64565978 98.4780723,3.09070768 C98.4780723,3.84891429 98.7662283,5.16768124 99.3434154,7.04675851 C99.9203525,8.92596078 100.785696,11.390226 101.939695,14.4396793 C102.038581,14.2582847 102.178221,14.130646 102.35999,14.056388 C102.54126,13.982255 102.788536,13.945126 103.101695,13.945126 C103.200581,13.945126 103.398477,13.953752 103.695134,13.9698787 C103.991791,13.9863805 104.477843,14.0278849 105.153916,14.093517 Z M102.730905,26.0359275 C103.01106,26.0359275 103.266213,25.9085388 103.497363,25.6526362 C103.728137,25.3972337 103.843525,25.121079 103.843525,24.8244221 C103.843525,24.5115134 103.61675,23.7820599 103.163577,22.6361865 C102.709903,21.4905632 102.145592,20.3655671 101.469894,19.2611983 C100.975341,18.4369845 100.489039,17.8147926 100.010987,17.3943723 C99.5326858,16.9740771 99.0797621,16.7638044 98.6510909,16.7638044 C98.3049287,16.7638044 97.9217624,16.982703 97.5013422,17.419125 C97.0810469,17.855922 96.8708993,18.2638409 96.8708993,18.6430067 C96.8708993,19.0386743 97.0769215,19.6321132 97.4889658,20.4233233 C97.9007602,21.2145335 98.4533196,22.055124 99.1456441,22.9452198 C99.8709722,23.9181995 100.555046,24.6760311 101.197865,25.2199646 C101.840684,25.7638982 102.351364,26.0359275 102.730905,26.0359275 Z M95.3132316,25.4424886 C95.5440065,25.7231438 95.8654161,26.1349381 96.2774604,26.6788717 C97.3654525,28.1787831 98.3705607,28.9288639 99.2940351,28.9288639 C99.6068188,28.9288639 99.887349,28.8299782 100.134751,28.6320819 C100.381902,28.4343106 100.505541,28.2282885 100.505541,28.0140154 C100.505541,27.7667388 100.340648,27.3549445 100.010987,26.7777573 C99.6809518,26.2008202 99.228028,25.5500002 98.6510909,24.8244221 C97.9917699,23.9837066 97.4433359,23.3697655 97.0069139,22.9823488 C96.5701169,22.5953071 96.2194542,22.4012862 95.9560508,22.4012862 C95.3788637,22.4012862 94.8471815,22.7103195 94.3612542,23.3285111 C93.8749518,23.9465776 93.6319257,24.6760311 93.6319257,25.5166216 C93.6319257,26.1929444 93.8008188,26.9470255 94.1387302,27.7791151 C94.4763916,28.6114547 94.9670694,29.4480448 95.6098886,30.2887602 C96.5824933,31.5910254 97.7894982,32.5920082 99.2321535,33.2925836 C100.674434,33.9937841 102.26923,34.3433217 104.016543,34.3433217 C107.230889,34.3433217 109.921804,33.1441926 112.089412,30.7461845 C114.256771,28.3478013 115.340887,25.343603 115.340887,21.7337144 C115.340887,20.6295955 115.258128,19.7518761 115.093611,19.1004309 C114.928718,18.4493609 114.656814,17.9754349 114.277648,17.6787779 C113.60145,17.1185926 112.287309,16.6155385 110.333973,16.1704906 C108.380638,15.7254427 106.340794,15.5029187 104.214315,15.5029187 C103.621001,15.5029187 103.200581,15.6018044 102.953429,15.7995756 C102.706152,15.9973469 102.582514,16.3353833 102.582514,16.8133098 C102.582514,17.9345555 103.208957,18.7460178 104.461591,19.2488219 C105.714101,19.7518761 107.741569,20.0029031 110.544121,20.0029031 L111.557855,20.0029031 C111.78863,20.0029031 111.974025,20.0895374 112.114165,20.262556 C112.25393,20.4355747 112.349065,20.6952276 112.398571,21.0413899 C112.117915,21.3051683 111.541353,21.6063257 110.667759,21.943862 C109.79379,22.2817734 109.126093,22.6155593 108.664919,22.9452198 C107.675937,23.6707979 106.880602,24.5318906 106.278912,25.5289979 C105.676972,26.5267303 105.37644,27.4700818 105.37644,28.3601777 C105.37644,28.9041112 105.503829,29.5593067 105.759731,30.3257642 C106.015259,31.0923467 106.142897,31.5661477 106.142897,31.7475423 L106.142897,31.9205609 L106.093517,32.1430848 C105.367939,32.0937045 104.795377,31.6695339 104.375082,30.8698228 C103.954787,30.0703617 103.744639,29.0029969 103.744639,27.6678531 L103.744639,27.4453292 C103.612375,27.5607166 103.484986,27.6431005 103.361348,27.6926058 C103.23771,27.7419861 103.101695,27.7667388 102.953429,27.7667388 C102.805038,27.7667388 102.664898,27.7543624 102.533009,27.7296098 C102.400745,27.7049821 102.252479,27.6678531 102.087961,27.6183478 C102.137466,27.7999924 102.174595,27.9768864 102.199223,28.15003 C102.223975,28.3230487 102.236352,28.4590633 102.236352,28.5579489 C102.236352,29.1678896 101.997326,29.691571 101.519275,30.1279929 C101.040848,30.56479 100.472162,30.7831885 99.813216,30.7831885 C98.7747292,30.7831885 97.7198657,30.2763839 96.6483753,29.2626498 C95.576635,28.2489157 95.0412024,27.2560588 95.0412024,26.2832041 C95.0412024,26.1019346 95.0618296,25.9411673 95.103084,25.8010272 C95.1438384,25.6612621 95.214346,25.5413742 95.3132316,25.4424886 Z M113.016637,15.3545277 C114.500172,15.635183 115.54691,16.2611253 116.156725,17.233605 C116.766291,18.2065847 117.071574,19.7394997 117.071574,21.8326 C117.071574,25.9864221 115.822939,29.3862881 113.32567,32.0318229 C110.828402,34.6772326 107.634683,36 103.744639,36 C102.211599,36 100.723939,35.7238453 99.2816588,35.1716608 C97.8390035,34.6194764 96.59887,33.8488935 95.5605082,32.859912 C94.3736305,31.7722949 93.4835347,30.6225462 92.8900958,29.4110408 C92.2966569,28.1994104 92,26.9594019 92,25.6897652 C92,24.2722376 92.3049078,23.1763697 92.9148485,22.4012862 C93.5242891,21.6265779 94.4886429,21.0993961 95.8076599,20.8188659 C95.5605082,20.2419288 95.3788637,19.7556265 95.2637263,19.3600839 C95.1483389,18.9644163 95.0907077,18.6595085 95.0907077,18.4452354 C95.0907077,17.7035306 95.4821248,16.945574 96.2650841,16.1704906 C97.0477933,15.3957822 97.7857478,15.0083655 98.4780723,15.0083655 C98.7747292,15.0083655 99.0876379,15.0619963 99.4175484,15.1691328 C99.7473339,15.2766444 100.126125,15.4534134 100.555046,15.70069 C99.2854092,12.1071782 98.3626849,9.33387969 97.7857478,7.38054443 C97.2084356,5.42720918 96.9204046,4.07968913 96.9204046,3.3379843 C96.9204046,2.31599929 97.183808,1.50453695 97.7116148,0.902472141 C98.2390466,0.300782376 98.9561237,0 99.8625963,0 C101.411763,0 103.373724,3.46162261 105.747355,10.3847428 C106.159149,11.5714955 106.472683,12.486344 106.686956,13.1292882 C106.868225,12.6186083 107.123378,11.8930302 107.453413,10.953429 C109.827044,4.09619091 111.870764,0.667571857 113.585323,0.667571857 C114.426039,0.667571857 115.097361,0.95197747 115.600415,1.52066368 C116.103219,2.0893499 116.354622,2.85205699 116.354622,3.80778487 C116.354622,4.53336297 116.078467,5.85988075 115.526282,7.78846334 C114.973723,9.71717095 114.137508,12.2390674 113.016637,15.3545277 L113.016637,15.3545277 Z" id="angellist"></path>
                            </g>
                        </g>
                    </g>
                </svg>