<?xml version="1.0" standalone="no"?>
<!DOCTYPE svg PUBLIC "-//W3C//DTD SVG 20010904//EN"
 "http://www.w3.org/TR/2001/REC-SVG-20010904/DTD/svg10.dtd">
<svg version="1.0" xmlns="http://www.w3.org/2000/svg"
 width="1200.000000pt" height="1319.000000pt" viewBox="0 0 1200.000000 1319.000000"
 preserveAspectRatio="xMidYMid meet">

<g transform="translate(0.000000,1319.000000) scale(0.100000,-0.100000)"
fill="#370096" stroke="none">
<path d="M5845 12644 c-58 -9 -182 -44 -231 -64 -102 -44 -4575 -2634 -4637
-2686 -164 -136 -301 -374 -343 -594 -12 -64 -14 -467 -12 -2745 l3 -2670 28
-90 c71 -228 189 -399 363 -529 73 -54 4386 -2552 4554 -2638 243 -123 619
-121 866 4 46 24 1080 619 2299 1323 1661 959 2234 1295 2288 1340 154 130
274 316 329 510 l23 80 3 2675 c3 2964 8 2742 -62 2915 -66 163 -175 314 -309
426 -49 42 -691 417 -2314 1354 -1236 714 -2270 1308 -2300 1321 -110 49 -198
66 -363 69 -85 2 -168 1 -185 -1z m615 -2488 c669 -91 1243 -334 1757 -744
145 -116 401 -368 530 -522 102 -121 253 -325 327 -442 l36 -57 -33 -19 c-92
-56 -1505 -871 -1514 -874 -6 -2 -33 31 -60 72 -174 264 -435 497 -711 636
-520 260 -1158 241 -1672 -50 -240 -137 -461 -343 -609 -571 -229 -353 -339
-818 -286 -1218 27 -210 80 -378 181 -582 80 -162 169 -287 303 -427 411 -429
1001 -632 1581 -542 485 75 901 352 1218 812 l48 70 770 -445 c423 -245 772
-448 776 -451 8 -9 -90 -168 -196 -318 -287 -404 -643 -736 -1052 -982 -1177
-707 -2710 -656 -3882 130 -564 378 -1007 917 -1271 1544 -292 697 -367 1518
-205 2242 248 1106 1009 2005 2090 2467 156 67 371 138 552 184 208 52 356 76
647 105 93 9 566 -4 675 -18z m2164 -2578 c-4 -30 -44 -415 -44 -424 0 -2 76
-4 168 -4 l168 0 24 230 23 230 149 0 c134 0 148 -2 147 -17 0 -10 -10 -114
-23 -230 l-22 -213 133 0 133 0 0 -145 0 -145 -150 0 c-140 0 -150 -1 -150
-19 0 -24 -29 -306 -36 -353 l-6 -38 131 0 131 0 0 -140 0 -140 -145 0 c-112
0 -145 -3 -145 -13 0 -7 -11 -120 -25 -251 -14 -131 -25 -240 -25 -242 0 -2
-67 -4 -150 -4 -140 0 -150 1 -150 19 0 10 11 121 25 247 14 126 25 232 25
236 0 4 -74 8 -164 8 l-164 0 -6 -27 c-3 -16 -15 -130 -27 -255 l-23 -228
-152 0 -152 0 5 38 c17 135 49 458 46 465 -2 4 -60 7 -129 7 l-124 0 0 140 0
140 145 0 c131 0 145 2 145 18 0 9 9 98 20 197 11 99 20 183 20 188 0 4 -56 7
-125 7 l-125 0 0 145 0 145 140 0 139 0 5 33 c3 17 12 100 21 182 8 83 18 171
21 198 l6 47 148 0 149 0 -5 -32z"/>
<path d="M8550 6858 c0 -2 -9 -86 -20 -188 -11 -102 -20 -193 -20 -202 0 -16
14 -18 164 -18 l165 0 6 43 c10 75 35 318 35 343 l0 24 -165 0 c-91 0 -165 -1
-165 -2z"/>
</g>
</svg>
