<?xml version="1.0" standalone="no"?>
<!DOCTYPE svg PUBLIC "-//W3C//DTD SVG 20010904//EN"
 "http://www.w3.org/TR/2001/REC-SVG-20010904/DTD/svg10.dtd">
<svg version="1.0" xmlns="http://www.w3.org/2000/svg"
 width="200.000000pt" height="200.000000pt" viewBox="0 0 200.000000 200.000000"
 preserveAspectRatio="xMidYMid meet">

<g transform="translate(0.000000,200.000000) scale(0.100000,-0.100000)"
fill="#000000" stroke="none">
<path d="M945 1991 c-11 -5 -64 -54 -117 -108 l-98 -98 110 -110 110 -110 55
-1 c91 -1 145 -55 153 -151 l4 -58 107 -108 c95 -96 109 -107 133 -101 37 8
97 -12 130 -44 76 -71 55 -208 -39 -247 -45 -19 -106 -19 -143 0 -55 28 -95
115 -78 166 8 23 0 34 -89 122 l-98 97 -3 -261 -2 -261 30 -28 c52 -49 65
-123 32 -189 -54 -108 -219 -106 -271 3 -36 74 -21 141 43 192 l36 29 0 267 0
267 -31 22 c-43 31 -73 99 -65 153 l6 41 -110 110 -111 109 -309 -309 c-322
-322 -338 -342 -325 -408 10 -46 914 -953 965 -967 75 -21 74 -22 562 467 310
311 459 467 464 486 19 79 28 68 -470 566 l-464 464 -48 3 c-27 2 -58 0 -69
-5z"/>
</g>
</svg>
