<svg width="30px" height="30px" viewBox="0 0 30 30" version="1.1" xmlns="http://www.w3.org/2000/svg" xmlns:xlink="http://www.w3.org/1999/xlink">
                    <g stroke="none" stroke-width="1" fill="none" fill-rule="evenodd">
                        <g transform="translate(-383.000000, -72.000000)" fill="#FFFFFF">
                            <g transform="translate(90.000000, 67.000000)">
                                <path d="M307.998619,5 C299.716597,5 293,11.8856308 293,20.3800802 C293,27.1750733 297.297554,32.9390628 303.258142,34.9727456 C304.008625,35.114367 304.282114,34.6394633 304.282114,34.2315938 C304.282114,33.8671548 304.269223,32.8994088 304.261856,31.6163193 C300.089536,32.5453554 299.209215,29.5543122 299.209215,29.5543122 C298.526873,27.7774362 297.543418,27.3044208 297.543418,27.3044208 C296.181497,26.3508369 297.646551,26.3697198 297.646551,26.3697198 C299.152123,26.4782962 299.944044,27.9549349 299.944044,27.9549349 C301.282022,30.3049054 303.455201,29.626067 304.309739,29.2323596 C304.446024,28.2391218 304.833697,27.5612275 305.261886,27.1769616 C301.931213,26.788919 298.429264,25.4690079 298.429264,19.5756709 C298.429264,17.8969856 299.013997,16.5232584 299.973511,15.4488243 C299.81881,15.0598376 299.304061,13.4953936 300.120845,11.3786263 C300.120845,11.3786263 301.379631,10.9650919 304.245281,12.9553441 C305.44145,12.6135646 306.725099,12.4436189 308.00046,12.4370099 C309.274901,12.4436189 310.557629,12.6135646 311.75564,12.9553441 C314.619448,10.9650919 315.876393,11.3786263 315.876393,11.3786263 C316.695018,13.4953936 316.180269,15.0598376 316.026489,15.4488243 C316.987845,16.5232584 317.567973,17.8969856 317.567973,19.5756709 C317.567973,25.4841142 314.060499,26.7841983 310.719697,27.1646877 C311.257466,27.6395914 311.737223,28.5780689 311.737223,30.0131654 C311.737223,32.0685635 311.718807,33.7274218 311.718807,34.2315938 C311.718807,34.6432399 311.989533,35.1219201 312.750146,34.9718015 C318.70613,32.933398 323,27.173185 323,20.3800802 C323,11.8856308 316.283403,5 307.998619,5" id="github"></path>
                            </g>
                        </g>
                    </g>
                </svg>