<?xml version="1.0" encoding="UTF-8" standalone="no"?>
<svg
   width="50.080105"
   height="44.557915"
   viewBox="0 0 50.080105 44.557916"
   version="1.1"
   id="svg5">
  <defs
     id="defs9" />
  <g
     id="react"
     transform="matrix(0.22164045,0,0,0.22164045,-3.6294546,153.01132)">
    <path
       id="path4"
       d="m 175.48642,-690.35643 c -11.307,-0.08 -25.8,7.083 -40.4,19.791 q -2.808,2.444 -5.627,5.162 -1.875,-1.794 -3.744,-3.457 c -20.4,-18.118 -40.857004,-25.752 -53.139004,-18.643 -11.778,6.817 -15.266,27.059 -10.31,52.389 q 0.718,3.67 1.672,7.484 c -2.895,0.822 -5.689,1.7 -8.363,2.629 -23.923,8.34 -39.2,21.412 -39.2,34.971 0,14 16.4,28.05 41.318,36.566 q 2.95,1.008 6.109,1.91 -1.024,4.122 -1.773,8.067 c -4.726,24.89 -1.036,44.653 10.709,51.428 12.132,6.995 32.493004,-0.2 52.319004,-17.526 q 2.35,-2.055 4.715,-4.346 3.063,2.951 6.107,5.575 c 19.2,16.525 38.17,23.2 49.9,16.4 12.12,-7.016 16.059,-28.247 10.946,-54.078 q -0.586,-2.959 -1.356,-6.039 2.145,-0.634 4.2,-1.313 c 25.9,-8.582 42.758,-22.458 42.758,-36.648 0,-13.608 -15.769,-26.767 -40.174,-35.168 q -3.516,-1.21 -7.275,-2.291 c 0.411,-1.678 0.79,-3.335 1.125,-4.963 5.506,-26.727 1.907,-48.258 -10.387,-55.348 a 20.294,20.294 0 0 0 -10.13,-2.552 z m -0.492,9.631 a 11.2,11.2 0 0 1 5.8,1.289 c 7.567,4.364 10.508,21.961 5.754,45.037 -0.3,1.472 -0.645,2.972 -1.016,4.492 a 231.206,231.206 0 0 0 -30.211,-4.773 226.67,226.67 0 0 0 -19.1,-23.838 q 2.6,-2.505 5.2,-4.766 c 13.032,-11.342 25.399,-17.322 33.573,-17.442 z m -91.394004,0.215 c 8.727,0.164 21.939004,6.646 35.700004,18.867 q 1.689,1.5 3.391,3.129 a 231.167,231.167 0 0 0 -19.249,23.82 235.923,235.923 0 0 0 -30.152004,4.688 q -0.882,-3.548 -1.553,-6.961 c -4.246,-21.7 -1.427,-38.074 5.67,-42.182 a 11.812,11.812 0 0 1 6.193,-1.362 z m 45.859004,28.9 a 206.482,206.482 0 0 1 13.3,16.051 q -6.628,-0.313 -13.407,-0.321 -6.7,0 -13.3,0.31 c 4.389,-5.788 8.885,-11.165 13.407,-16.044 z m -0.107,25.387 c 7,0 13.9,0.267 20.613,0.779 3.736,5.515 7.384,11.331 10.887,17.383 3.543,6.12 6.8,12.184 9.742,18.131 -2.935,6.048 -6.182,12.172 -9.709,18.289 -3.527,6.117 -7.159,11.971 -10.84,17.49 -6.705,0.479 -13.633,0.726 -20.693,0.726 -7.032,0 -13.871,-0.219 -20.457,-0.646 -3.83,-5.591 -7.536,-11.455 -11.045004,-17.518 v 0 c -3.5,-6.046 -6.723,-12.142 -9.643,-18.205 2.924,-6.078 6.133,-12.184 9.613,-18.219 3.490004,-6.051 7.162004,-11.885 10.957004,-17.441 6.72,-0.508 13.611,-0.773 20.575,-0.773 z m -32.967004,2.01 q -3.56,5.552 -6.926,11.383 -3.35,5.809 -6.379,11.684 c -2.811,-6.672 -5.215,-13.226 -7.179,-19.556 6.446,-1.443 13.32,-2.622 20.484,-3.516 z m 65.951004,0.016 c 7.21,0.911 14.117,2.121 20.6,3.6 a 206.486,206.486 0 0 1 -7.233,19.457 q -3.074,-5.838 -6.5,-11.758 -3.35,-5.796 -6.867,-11.304 z m -95.805004,5.864 a 231.383,231.383 0 0 0 11.01,28.539 235.077,235.077 0 0 0 -11.15,28.942 q -2.884,-0.83 -5.576,-1.747 c -11.018,-3.765 -20.119,-8.659 -26.356,-14 -5.6,-4.8 -8.434,-9.565 -8.434,-13.431 0,-8.228 12.268,-18.723 32.727,-25.856 2.479,-0.865 5.079,-1.681 7.779,-2.447 z m 125.768004,0.143 c 2.311,0.669 4.555,1.375 6.717,2.119 20.909,7.2 33.664,17.84 33.664,26.041 0,8.735 -13.775,20.075 -36.141,27.486 -1.235,0.409 -2.5,0.8 -3.8,1.188 a 226.347,226.347 0 0 0 -11.443,-28.627 226.439,226.439 0 0 0 11.001,-28.207 z m -16.5,39.394 a 205.027,205.027 0 0 1 7.588,19.879 205.185,205.185 0 0 1 -21.078,3.592 q 3.518,-5.575 6.937,-11.5 3.453,-5.986 6.553,-11.971 z m -92.709004,0.348 q 3.034,5.859 6.406,11.691 3.434,5.931 7.1,11.606 a 205.49,205.49 0 0 1 -20.824,-3.348 c 1.991,-6.443 4.448,-13.139 7.318,-19.949 z m 102.941004,28.828 q 0.692,2.788 1.223,5.465 c 2.261,11.422 2.586,21.749 1.088,29.822 -1.346,7.254 -4.052,12.09 -7.4,14.027 -7.12,4.122 -22.35,-1.236 -38.773,-15.369 q -2.824,-2.43 -5.682,-5.179 a 226.952,226.952 0 0 0 18.944,-24.049 225.458,225.458 0 0 0 30.6,-4.717 z m -112.873004,0.432 a 227.181,227.181 0 0 0 30.450004,4.406 235.047,235.047 0 0 0 19.4,23.965 q -2.163,2.087 -4.307,3.965 c -8.766,7.663 -17.55,13.1 -25.293004,15.834 -6.957,2.457 -12.5,2.527 -15.848,0.6 -7.127,-4.111 -10.09,-19.977 -6.049,-41.263 q 0.695,-3.662 1.649,-7.507 z m 69.832004,5.109 a 205.243,205.243 0 0 1 -13.259,16.316 c -4.575,-4.936 -9.139,-10.4 -13.6,-16.271 q 6.489,0.255 13.221,0.258 6.908,0.004 13.64,-0.303 z"
       fill="#53c1de" />
    <path
       id="path8"
       d="m 129.35242,-610.20743 a 20.177,20.177 0 1 1 -20.177,20.177 20.177,20.177 0 0 1 20.177,-20.177"
       fill="#53c1de" />
  </g>
</svg>
