<?xml version="1.0" encoding="UTF-8"?>
<svg width="60.958mm" height="83.338mm" version="1.1" viewBox="0 0 60.958 83.338" >
 <g transform="translate(-.449 -.43549)">
  <path d="m0.449 12.804v58.602h60.958v-58.602h-8.8837a22.749 9.2762 0 0 1 1.3012 3.0923 22.749 9.2762 0 0 1-22.749 9.2764 22.749 9.2762 0 0 1-22.748-9.2764 22.749 9.2762 0 0 1 1.3012-3.0923zm17.966 24.789c1.6918 0 2.925 0.18571 3.6995 0.55707v2.5668c-0.91736-0.64079-2.0977-0.96118-3.5414-0.96118-0.39852 0-0.79727 0.03674-1.1958 0.10955-0.391 0.07282-0.74407 0.19271-1.0599 0.36018-0.30829 0.16748-0.56052 0.38226-0.75603 0.6444-0.1955 0.26214-0.293 0.57896-0.293 0.95033 0 0.34952 0.07492 0.65154 0.22531 0.9064 0.15039 0.25486 0.36849 0.48801 0.65422 0.69918 0.29325 0.21117 0.64684 0.41882 1.0604 0.6227 0.42108 0.19661 0.9063 0.41139 1.4552 0.64441 0.56395 0.28398 1.0938 0.58244 1.5901 0.89555 0.50379 0.31311 0.94385 0.65901 1.3198 1.0377 0.38348 0.37865 0.68421 0.80108 0.90227 1.2671 0.22558 0.45875 0.33848 0.9827 0.33848 1.5725 0 0.7937-0.16576 1.4636-0.49661 2.0097-0.33085 0.54613-0.77809 0.9905-1.342 1.3327-0.55643 0.34224-1.1992 0.58967-1.9286 0.74259s-1.5004 0.22944-2.3125 0.22944c-0.2707 0-0.60503-0.02193-1.0036-0.06563-0.391-0.03641-0.7936-0.09457-1.2072-0.17467-0.41356-0.07282-0.80409-0.16363-1.1725-0.27285-0.36845-0.10922-0.66584-0.2332-0.89142-0.37155v-2.6758c0.24814 0.21845 0.54168 0.41487 0.88005 0.58963 0.34589 0.17476 0.71051 0.32424 1.094 0.44804 0.38349 0.11651 0.76683 0.20732 1.1503 0.27285 0.38348 0.06553 0.73707 0.09819 1.0604 0.09819 1.1279 0 1.9662-0.18162 2.5151-0.5457 0.55643-0.36408 0.83457-0.89212 0.83457-1.5839 0-0.37136-0.09417-0.69176-0.28215-0.96118-0.18046-0.2767-0.43603-0.52823-0.76688-0.75396s-0.7219-0.44052-1.1731-0.64441c-0.44364-0.21116-0.92116-0.42952-1.4325-0.65526-0.54891-0.28399-1.06-0.57173-1.5338-0.863-0.47372-0.29127-0.88734-0.61166-1.2408-0.96118-0.34589-0.3568-0.62018-0.75729-0.82321-1.2015-0.1955-0.44418-0.29352-0.96456-0.29352-1.5617 0-0.73545 0.16961-1.3727 0.50798-1.9115 0.34589-0.54613 0.79698-0.99407 1.3534-1.3436 0.56395-0.3568 1.2029-0.61904 1.9172-0.78652 0.71433-0.17476 1.4436-0.262 2.188-0.262zm14.291 0c1.1279 0 2.1584 0.19285 3.0908 0.57878 0.9324 0.38593 1.7294 0.92876 2.3911 1.6278 0.6617 0.69176 1.1728 1.5218 1.5338 2.4903 0.36845 0.96846 0.55242 2.0353 0.55242 3.2003 0 1.5437-0.2666 2.8977-0.80047 4.0628-0.53387 1.1578-1.2857 2.0899-2.2557 2.7962l4.6917 3.2768h-4.083l-2.8872-2.1735c-0.38348 0.10194-0.78223 0.18204-1.1958 0.2403-0.41356 0.05825-0.84592 0.08733-1.2971 0.08733-1.1655 0-2.2219-0.19284-3.1693-0.57878-0.94743-0.38593-1.756-0.92468-2.4252-1.6164-0.66922-0.69904-1.188-1.5327-1.5565-2.5011-0.36845-0.96846-0.55242-2.0388-0.55242-3.2112 1e-6 -1.2524 0.18398-2.3886 0.55242-3.4081 0.37596-1.0194 0.90634-1.8898 1.5906-2.6107 0.69178-0.72089 1.5301-1.2775 2.5151-1.6707 0.98503-0.39321 2.0866-0.59014 3.3047-0.59014zm10.535 0.262h2.6841v13.468h6.2715v2.1952h-8.9555zm-10.67 2.0211c-0.73689 0-1.4133 0.14183-2.0299 0.42582-0.60906 0.2767-1.1356 0.67362-1.5792 1.1906-0.44364 0.50972-0.78952 1.1214-1.0377 1.835-0.24062 0.7136-0.36122 1.5069-0.36122 2.3807 0 0.86652 0.11675 1.6568 0.34985 2.3704 0.24062 0.7136 0.57547 1.3253 1.0041 1.835 0.4286 0.50244 0.94358 0.89579 1.5451 1.1798 0.60155 0.2767 1.2669 0.41496 1.9963 0.41496 0.77449 0 1.4701-0.13112 2.0867-0.39326 0.61658-0.26214 1.1393-0.63712 1.5679-1.125 0.43612-0.49516 0.77046-1.0997 1.0036-1.8133 0.2331-0.7136 0.34985-1.5253 0.34985-2.4355 0-0.93206-0.1129-1.7621-0.33848-2.4903-0.22558-0.72817-0.54888-1.3399-0.96997-1.835-0.42108-0.50244-0.93606-0.88456-1.5451-1.1467-0.60154-0.26214-1.2823-0.39326-2.0417-0.39326z" opacity=".994" stroke-width="3.182"/>
  <path d="m30.872 0.43549a30.426 12.368 0 0 0-30.423 12.368 30.426 12.368 0 0 0 30.426 12.368 30.426 12.368 0 0 0 0.10852 0 22.749 9.2762 0 0 1-22.657-9.2759 22.749 9.2762 0 0 1 22.748-9.2764 22.749 9.2762 0 0 1 22.749 9.2764 22.749 9.2762 0 0 1-21.483 9.2614 30.426 12.368 0 0 0 28.961-12.354 30.426 12.368 0 0 0-30.426-12.368 30.426 12.368 0 0 0-0.0031 0z" opacity=".994" stroke-width="3.6707"/>
  <ellipse cx="30.934" cy="71.406" rx="30.485" ry="12.368" opacity=".994" stroke-width="3.6742"/>
 </g>
</svg>
